<svg width="16" height="16" viewBox="0 0 16 16" fill="none" xmlns="http://www.w3.org/2000/svg">
<g clip-path="url(#clip0_3307_919)">
<path d="M12 0H4C1.79086 0 0 1.79086 0 4V12C0 14.2091 1.79086 16 4 16H12C14.2091 16 16 14.2091 16 12V4C16 1.79086 14.2091 0 12 0Z" fill="#F96100"/>
<path fill-rule="evenodd" clip-rule="evenodd" d="M5.17333 7.96865H5.11133V12.4792H5.17333V12.5001H6.55648V12.4792H6.57713V12.4582H6.59778V9.514H10.8915V9.4931H10.9122V7.96865H10.8709V7.94775H5.17333V7.96865Z" fill="black"/>
<path fill-rule="evenodd" clip-rule="evenodd" d="M5.15332 3.54178H5.17397V3.58358H5.19462V3.60447H5.21527V3.62536H5.23592V3.64625H5.25657V3.66715H5.27727V3.68804H5.29792V3.70894H5.31857V3.72984H5.33922V3.75054H5.35987V3.77143H5.38052V3.79232H5.40097V3.81321H5.42162V3.8341H5.44232V3.85499H5.46297V3.8759H5.48362V3.89679H5.50427V3.91768H5.52492V3.93857H5.54557V3.95946H5.56627V3.98035H5.58692V4.00105H5.60757V4.02215H5.62822V4.04304H5.64887V4.06375H5.66952V4.08482H5.69017V4.10553H5.71062V4.14731H5.73132V4.16821H5.75197V4.18911H5.77262V4.20999H5.79327V4.23089H5.81392V4.25177H5.83457V4.27267H5.85522V4.29357H5.87587V4.31447H5.89652V4.33536H5.91722V4.35625H5.93787V4.37714H5.95852V4.39803H5.97917V4.41873H5.99982V4.43962H6.02032V4.46053H6.04112V4.48142H6.06162V4.50232H6.08227V4.5232H6.10292V4.54409H6.12357V4.56498H6.14422V4.58589H6.16487V4.60678H6.18552V4.62768H6.20617V4.64856H6.22682V4.66946H6.24747V4.69035H6.26817V4.71126H6.28882V4.73214H6.30947V4.75304H6.32992V4.79463H6.35077V4.81571H6.37122V4.83641H6.39192V4.8573H6.41257V4.87821H6.43322V4.8991H6.45387V4.91999H6.47452V4.94088H6.49517V4.96177H6.51582V4.98267H6.53647V5.00355H6.55717V5.02445H10.8922V5.00355H10.9129V3.5H5.15332V3.54178Z" fill="black"/>
</g>
<defs>
<clipPath id="clip0_3307_919">
<rect width="16" height="16" fill="white"/>
</clipPath>
</defs>
</svg>
