<svg width="32" height="32" viewBox="0 0 32 32" fill="none" xmlns="http://www.w3.org/2000/svg">
<g clip-path="url(#clip0_3307_915)">
<path d="M24 0H8C3.58172 0 0 3.58172 0 8V24C0 28.4183 3.58172 32 8 32H24C28.4183 32 32 28.4183 32 24V8C32 3.58172 28.4183 0 24 0Z" fill="#F96100"/>
<path fill-rule="evenodd" clip-rule="evenodd" d="M10.3471 15.9373H10.2231V24.9583H10.3471V25.0001H13.1134V24.9583H13.1547V24.9164H13.196V19.028H21.7835V18.9862H21.8248V15.9373H21.7422V15.8955H10.3471V15.9373Z" fill="black"/>
<path fill-rule="evenodd" clip-rule="evenodd" d="M10.3071 7.08356H10.3484V7.16716H10.3897V7.20894H10.431V7.25072H10.4723V7.2925H10.5136V7.33429H10.555V7.37607H10.5963V7.41788H10.6376V7.45967H10.6789V7.50107H10.7202V7.54285H10.7615V7.58463H10.8024V7.62642H10.8437V7.6682H10.8851V7.70998H10.9264V7.7518H10.9677V7.79358H11.009V7.83535H11.0503V7.87714H11.0916V7.91892H11.133V7.9607H11.1743V8.00211H11.2156V8.0443H11.2569V8.08608H11.2982V8.12749H11.3395V8.16964H11.3808V8.21105H11.4217V8.29461H11.4631V8.33643H11.5044V8.37821H11.5457V8.41999H11.587V8.46177H11.6283V8.50355H11.6696V8.54533H11.7109V8.58715H11.7522V8.62893H11.7935V8.67072H11.8349V8.7125H11.8762V8.75428H11.9175V8.79606H11.9588V8.83746H12.0001V8.87925H12.0411V8.92106H12.0827V8.96285H12.1237V9.00463H12.165V9.04641H12.2063V9.08818H12.2476V9.12997H12.2889V9.17178H12.3302V9.21357H12.3715V9.25535H12.4128V9.29713H12.4541V9.33891H12.4954V9.3807H12.5368V9.42251H12.5781V9.46429H12.6194V9.50607H12.6603V9.58926H12.702V9.63142H12.7429V9.67282H12.7843V9.7146H12.8256V9.75642H12.8669V9.7982H12.9082V9.83998H12.9495V9.88176H12.9908V9.92355H13.0321V9.96533H13.0734V10.0071H13.1148V10.0489H21.7848V10.0071H21.8262V7H10.3071V7.08356Z" fill="black"/>
</g>
<defs>
<clipPath id="clip0_3307_915">
<rect width="32" height="32" fill="white"/>
</clipPath>
</defs>
</svg>
