<svg width="157" height="27" viewBox="0 0 157 27" fill="none" xmlns="http://www.w3.org/2000/svg">
<path d="M13.8734 5.60981C12.465 5.60981 11.4771 5.86916 10.9095 6.38786C10.363 6.88496 10.0897 7.69543 10.0897 8.81929V26.1634H3.65752V9.14347C3.65752 7.34963 4.01487 5.82594 4.72955 4.5724C5.44424 3.29726 6.49525 2.33549 7.88259 1.68712C9.29095 1.01712 11.0251 0.682129 13.0851 0.682129C14.01 0.682129 14.8298 0.746967 15.5445 0.876642C16.2802 1.00632 17.0579 1.19003 17.8777 1.42776V6.29061C17.2471 6.05287 16.5955 5.87997 15.9228 5.7719C15.2712 5.66384 14.588 5.60981 13.8734 5.60981ZM0 14.0712V9.17589H17.4363V14.0712H0Z" fill="white"/>
<path d="M35.4162 26.1634L34.5964 19.4851L35.4478 16.924L34.5964 14.3629L35.4162 7.6522H42.1007L40.9656 16.8916L42.1007 26.1634H35.4162ZM36.9297 16.924C36.6354 18.8692 36.0468 20.5766 35.164 22.0462C34.3022 23.5159 33.1986 24.6613 31.8533 25.4826C30.529 26.2823 29.0156 26.6821 27.3129 26.6821C25.5472 26.6821 23.9917 26.2823 22.6464 25.4826C21.3222 24.6613 20.2817 23.5159 19.5249 22.0462C18.7682 20.5549 18.3898 18.8475 18.3898 16.924C18.3898 14.9573 18.7682 13.2391 19.5249 11.7694C20.2817 10.2998 21.3222 9.15428 22.6464 8.333C23.9917 7.51172 25.5472 7.10108 27.3129 7.10108C29.0156 7.10108 30.529 7.51172 31.8533 8.333C33.1986 9.13267 34.3127 10.2673 35.1955 11.737C36.0784 13.185 36.6564 14.914 36.9297 16.924ZM24.9166 16.924C24.9166 17.8318 25.0953 18.6422 25.4526 19.3554C25.831 20.0687 26.346 20.6306 26.9976 21.0412C27.6493 21.4303 28.3955 21.6248 29.2363 21.6248C30.1191 21.6248 30.9494 21.4303 31.7272 21.0412C32.5049 20.6306 33.1881 20.0687 33.7766 19.3554C34.3652 18.6422 34.8066 17.8318 35.1009 16.924C34.8066 15.9947 34.3652 15.1734 33.7766 14.4602C33.1881 13.747 32.5049 13.185 31.7272 12.7744C30.9494 12.3638 30.1191 12.1584 29.2363 12.1584C28.3955 12.1584 27.6493 12.3638 26.9976 12.7744C26.346 13.185 25.831 13.747 25.4526 14.4602C25.0953 15.1734 24.9166 15.9947 24.9166 16.924Z" fill="white"/>
<path d="M66.5143 18.3505C66.3461 20.0146 65.7575 21.4735 64.7486 22.727C63.7396 23.9805 62.4258 24.9531 60.8073 25.6447C59.2097 26.3363 57.4125 26.6821 55.4156 26.6821C53.2085 26.6821 51.2641 26.2715 49.5825 25.4502C47.9009 24.6289 46.5871 23.4835 45.6412 22.0138C44.6953 20.5441 44.2223 18.8475 44.2223 16.924C44.2223 14.9789 44.6953 13.2715 45.6412 11.8018C46.5871 10.3322 47.9009 9.1867 49.5825 8.36542C51.2641 7.52253 53.2085 7.10108 55.4156 7.10108C57.4125 7.10108 59.2097 7.45769 60.8073 8.17091C62.4258 8.86251 63.7396 9.83508 64.7486 11.0886C65.7575 12.3205 66.3461 13.7794 66.5143 15.4652H60.1136C59.8824 14.3629 59.3464 13.52 58.5056 12.9365C57.6648 12.3313 56.6348 12.0288 55.4156 12.0288C54.4697 12.0288 53.6394 12.2233 52.9247 12.6123C52.231 12.9797 51.6845 13.5308 51.2851 14.2657C50.9067 14.9789 50.7176 15.865 50.7176 16.924C50.7176 17.9614 50.9067 18.8475 51.2851 19.5824C51.6845 20.2956 52.231 20.8467 52.9247 21.2357C53.6394 21.6032 54.4697 21.7869 55.4156 21.7869C56.6348 21.7869 57.6648 21.4735 58.5056 20.8467C59.3674 20.2199 59.9034 19.3879 60.1136 18.3505H66.5143Z" fill="white"/>
<path d="M67.2365 12.5475V9.66218L70.894 8.13849L73.6687 2.65968H77.3262V7.6522H84.8935V12.5475H77.3262V17.9938C77.3262 19.3338 77.589 20.274 78.1145 20.8143C78.64 21.3546 79.5964 21.6248 80.9837 21.6248C81.8666 21.6248 82.6443 21.5491 83.317 21.3978C84.0107 21.2249 84.6413 21.0088 85.2088 20.7495V25.742C84.5782 25.9797 83.7479 26.1958 82.7179 26.3904C81.6879 26.5849 80.6264 26.6821 79.5334 26.6821C77.5364 26.6821 75.8969 26.3687 74.6146 25.742C73.3534 25.1152 72.418 24.2183 71.8084 23.0512C71.1988 21.8625 70.894 20.4793 70.894 18.9016V12.5475H67.2365Z" fill="white"/>
<path d="M95.5678 26.6821C93.8862 26.6821 92.4463 26.3255 91.2481 25.6123C90.071 24.8991 89.1671 23.8941 88.5365 22.5973C87.9059 21.279 87.5906 19.7445 87.5906 17.9938V7.6522H94.0228V17.0537C94.0228 18.4153 94.3486 19.4635 95.0002 20.1983C95.6519 20.9332 96.5873 21.3006 97.8064 21.3006C98.7103 21.3006 99.467 21.1169 100.077 20.7495C100.686 20.3604 101.159 19.8093 101.495 19.0961C101.832 18.3829 102 17.5292 102 16.535L103.986 17.6048C103.755 19.5716 103.23 21.2357 102.41 22.5973C101.611 23.9373 100.623 24.9531 99.446 25.6447C98.2689 26.3363 96.9761 26.6821 95.5678 26.6821ZM103.167 26.1634L102 18.7395V7.6522H108.432V19.7769L109.599 26.1634H103.167Z" fill="white"/>
<path d="M111.47 7.6522H117.934L119.1 15.0437V26.1634H112.668V14.0387L111.47 7.6522ZM125.312 7.10108C126.972 7.10108 128.381 7.45769 129.537 8.17091C130.693 8.88412 131.576 9.88911 132.185 11.1859C132.795 12.4826 133.1 14.0171 133.1 15.7894V26.1634H126.668V16.7619C126.668 15.3787 126.363 14.3197 125.753 13.5849C125.144 12.85 124.261 12.4826 123.105 12.4826C122.285 12.4826 121.57 12.6771 120.961 13.0662C120.372 13.4552 119.91 14.0063 119.573 14.7195C119.258 15.4328 119.1 16.2756 119.1 17.2482L117.114 16.1784C117.366 14.2116 117.881 12.5583 118.659 11.2183C119.437 9.85669 120.393 8.83009 121.528 8.13849C122.684 7.44688 123.945 7.10108 125.312 7.10108ZM139.28 7.10108C140.94 7.10108 142.349 7.45769 143.505 8.17091C144.682 8.88412 145.575 9.88911 146.185 11.1859C146.794 12.4826 147.099 14.0171 147.099 15.7894V26.1634H140.667V16.7619C140.667 15.3787 140.362 14.3197 139.753 13.5849C139.143 12.85 138.26 12.4826 137.104 12.4826C136.284 12.4826 135.57 12.6771 134.96 13.0662C134.371 13.4552 133.909 14.0063 133.573 14.7195C133.257 15.4328 133.1 16.2756 133.1 17.2482L131.113 16.1784C131.366 14.2116 131.87 12.5583 132.627 11.2183C133.405 9.85669 134.371 8.83009 135.528 8.13849C136.684 7.44688 137.934 7.10108 139.28 7.10108Z" fill="white"/>
<path d="M153.374 26.4876C152.701 26.4876 152.081 26.3255 151.514 26.0013C150.967 25.6771 150.536 25.2341 150.221 24.6722C149.906 24.0886 149.748 23.451 149.748 22.7594C149.748 22.0678 149.906 21.4411 150.221 20.8791C150.536 20.3172 150.967 19.8741 151.514 19.55C152.081 19.2042 152.701 19.0313 153.374 19.0313C154.068 19.0313 154.688 19.2042 155.234 19.55C155.781 19.8741 156.212 20.3172 156.527 20.8791C156.842 21.4411 157 22.0678 157 22.7594C157 23.451 156.842 24.0886 156.527 24.6722C156.212 25.2341 155.781 25.6771 155.234 26.0013C154.688 26.3255 154.068 26.4876 153.374 26.4876Z" fill="#CB4E00"/>
</svg>
