<svg width="135" height="22" viewBox="0 0 135 22" fill="none" xmlns="http://www.w3.org/2000/svg">
<path d="M11.9293 4.16958C10.7183 4.16958 9.8688 4.38903 9.38078 4.82793C8.91084 5.24855 8.67587 5.93433 8.67587 6.88529V21.5611H3.145V7.1596C3.145 5.64173 3.45227 4.35245 4.06681 3.29177C4.68135 2.2128 5.58509 1.399 6.77802 0.850373C7.98903 0.283458 9.4802 0 11.2515 0C12.0468 0 12.7517 0.0548627 13.3663 0.164588C13.9989 0.274313 14.6676 0.429758 15.3726 0.630923V4.74563C14.8303 4.54447 14.27 4.39817 13.6916 4.30673C13.1313 4.2153 12.5439 4.16958 11.9293 4.16958ZM0 11.3292V7.18703H14.993V11.3292H0Z" fill="#0F0F0F"/>
<path d="M30.4534 21.5611L29.7485 15.9102L30.4806 13.7431L29.7485 11.5761L30.4534 5.89775H36.2012L35.2252 13.7157L36.2012 21.5611H30.4534ZM31.7548 13.7431C31.5018 15.389 30.9957 16.8337 30.2365 18.0773C29.4955 19.3209 28.5466 20.2901 27.3898 20.985C26.2511 21.6617 24.9497 22 23.4856 22C21.9674 22 20.6298 21.6617 19.473 20.985C18.3343 20.2901 17.4396 19.3209 16.789 18.0773C16.1383 16.8155 15.8129 15.3707 15.8129 13.7431C15.8129 12.079 16.1383 10.6251 16.789 9.38155C17.4396 8.13799 18.3343 7.16874 19.473 6.47381C20.6298 5.77889 21.9674 5.43142 23.4856 5.43142C24.9497 5.43142 26.2511 5.77889 27.3898 6.47381C28.5466 7.15046 29.5045 8.11056 30.2637 9.35411C31.0228 10.5794 31.5199 12.0424 31.7548 13.7431ZM21.4251 13.7431C21.4251 14.5112 21.5788 15.197 21.886 15.8005C22.2114 16.404 22.6542 16.8795 23.2145 17.2269C23.7748 17.5561 24.4165 17.7207 25.1395 17.7207C25.8986 17.7207 26.6126 17.5561 27.2813 17.2269C27.9501 16.8795 28.5375 16.404 29.0436 15.8005C29.5497 15.197 29.9293 14.5112 30.1823 13.7431C29.9293 12.9568 29.5497 12.2618 29.0436 11.6584C28.5375 11.0549 27.9501 10.5794 27.2813 10.2319C26.6126 9.88445 25.8986 9.71072 25.1395 9.71072C24.4165 9.71072 23.7748 9.88445 23.2145 10.2319C22.6542 10.5794 22.2114 11.0549 21.886 11.6584C21.5788 12.2618 21.4251 12.9568 21.4251 13.7431Z" fill="#0F0F0F"/>
<path d="M57.1938 14.9501C57.0492 16.3583 56.5431 17.5927 55.6755 18.6534C54.8079 19.714 53.6783 20.537 52.2865 21.1222C50.9128 21.7074 49.3674 22 47.6503 22C45.7525 22 44.0806 21.6525 42.6346 20.9576C41.1886 20.2627 40.059 19.2934 39.2456 18.0499C38.4322 16.8063 38.0256 15.3707 38.0256 13.7431C38.0256 12.0973 38.4322 10.6525 39.2456 9.40898C40.059 8.16542 41.1886 7.19617 42.6346 6.50125C44.0806 5.78803 45.7525 5.43142 47.6503 5.43142C49.3674 5.43142 50.9128 5.73317 52.2865 6.33666C53.6783 6.92186 54.8079 7.7448 55.6755 8.80549C56.5431 9.84788 57.0492 11.0823 57.1938 12.5087H51.6901C51.4912 11.5761 51.0303 10.8628 50.3073 10.3691C49.5843 9.85702 48.6987 9.601 47.6503 9.601C46.837 9.601 46.123 9.76558 45.5085 10.0948C44.912 10.4057 44.4421 10.872 44.0987 11.4938C43.7733 12.0973 43.6106 12.847 43.6106 13.7431C43.6106 14.6209 43.7733 15.3707 44.0987 15.9925C44.4421 16.596 44.912 17.0623 45.5085 17.3915C46.123 17.7024 46.837 17.8579 47.6503 17.8579C48.6987 17.8579 49.5843 17.5927 50.3073 17.0623C51.0484 16.532 51.5093 15.8279 51.6901 14.9501H57.1938Z" fill="#0F0F0F"/>
<path d="M57.8148 10.0399V7.5985L60.9598 6.30923L63.3457 1.67332H66.4907V5.89775H72.9976V10.0399H66.4907V14.6484C66.4907 15.7822 66.7166 16.5777 67.1685 17.0349C67.6204 17.4921 68.4428 17.7207 69.6357 17.7207C70.3948 17.7207 71.0636 17.6567 71.642 17.5287C72.2385 17.3824 72.7807 17.1995 73.2687 16.98V21.2045C72.7265 21.4057 72.0125 21.5885 71.1269 21.7531C70.2412 21.9177 69.3284 22 68.3886 22C66.6715 22 65.2616 21.7348 64.1591 21.2045C63.0746 20.6741 62.2703 19.9152 61.7461 18.9277C61.2219 17.9219 60.9598 16.7515 60.9598 15.4165V10.0399H57.8148Z" fill="#0F0F0F"/>
<path d="M82.1761 22C80.7301 22 79.492 21.6983 78.4618 21.0948C77.4496 20.4913 76.6724 19.6409 76.1301 18.5436C75.5879 17.4281 75.3167 16.1297 75.3167 14.6484V5.89775H80.8476V13.8529C80.8476 15.005 81.1278 15.8919 81.6881 16.5137C82.2484 17.1355 83.0527 17.4464 84.1011 17.4464C84.8783 17.4464 85.529 17.2909 86.0531 16.98C86.5773 16.6509 86.984 16.1845 87.2732 15.581C87.5624 14.9776 87.707 14.2552 87.707 13.414L89.415 14.3192C89.2162 15.9834 88.7644 17.3915 88.0594 18.5436C87.3726 19.6775 86.5231 20.537 85.5109 21.1222C84.4987 21.7074 83.3871 22 82.1761 22ZM88.7101 21.5611L87.707 15.2793V5.89775H93.2378V16.1571L94.241 21.5611H88.7101Z" fill="#0F0F0F"/>
<path d="M95.8499 5.89775H101.408L102.411 12.1521V21.5611H96.8802V11.3017L95.8499 5.89775ZM107.752 5.43142C109.18 5.43142 110.391 5.73317 111.385 6.33666C112.379 6.94015 113.138 7.79052 113.663 8.88778C114.187 9.98504 114.449 11.2835 114.449 12.783V21.5611H108.918V13.606C108.918 12.4356 108.656 11.5395 108.132 10.9177C107.608 10.2959 106.848 9.98504 105.854 9.98504C105.149 9.98504 104.535 10.1496 104.011 10.4788C103.505 10.808 103.107 11.2743 102.818 11.8778C102.547 12.4813 102.411 13.1945 102.411 14.0175L100.703 13.1122C100.92 11.448 101.363 10.049 102.031 8.91521C102.7 7.76309 103.523 6.89443 104.499 6.30923C105.493 5.72402 106.577 5.43142 107.752 5.43142ZM119.763 5.43142C121.191 5.43142 122.402 5.73317 123.396 6.33666C124.408 6.94015 125.176 7.79052 125.7 8.88778C126.225 9.98504 126.487 11.2835 126.487 12.783V21.5611H120.956V13.606C120.956 12.4356 120.694 11.5395 120.169 10.9177C119.645 10.2959 118.886 9.98504 117.892 9.98504C117.187 9.98504 116.573 10.1496 116.048 10.4788C115.542 10.808 115.145 11.2743 114.855 11.8778C114.584 12.4813 114.449 13.1945 114.449 14.0175L112.741 13.1122C112.958 11.448 113.391 10.049 114.042 8.91521C114.711 7.76309 115.542 6.89443 116.536 6.30923C117.531 5.72402 118.606 5.43142 119.763 5.43142Z" fill="#0F0F0F"/>
<path d="M131.882 21.8354C131.304 21.8354 130.771 21.6983 130.283 21.4239C129.813 21.1496 129.442 20.7747 129.171 20.2992C128.9 19.8055 128.764 19.266 128.764 18.6808C128.764 18.0956 128.9 17.5653 129.171 17.0898C129.442 16.6143 129.813 16.2394 130.283 15.9651C130.771 15.6725 131.304 15.5262 131.882 15.5262C132.479 15.5262 133.012 15.6725 133.482 15.9651C133.952 16.2394 134.322 16.6143 134.593 17.0898C134.864 17.5653 135 18.0956 135 18.6808C135 19.266 134.864 19.8055 134.593 20.2992C134.322 20.7747 133.952 21.1496 133.482 21.4239C133.012 21.6983 132.479 21.8354 131.882 21.8354Z" fill="#CB4E00"/>
</svg>
