<svg width="1709" height="15" viewBox="0 0 1709 15" fill="none" xmlns="http://www.w3.org/2000/svg">
<path d="M6.736 12.208C4.96533 12.208 3.51467 11.6747 2.384 10.608C1.25333 9.53067 0.688 8.112 0.688 6.352C0.688 4.624 1.24267 3.21067 2.352 2.112C3.46133 1.01333 4.92267 0.464 6.736 0.464C8.50667 0.464 9.95733 1.00267 11.088 2.08C12.2293 3.15733 12.8 4.58133 12.8 6.352C12.8 8.06933 12.24 9.47733 11.12 10.576C10.0107 11.664 8.54933 12.208 6.736 12.208ZM6.736 10.416C7.90933 10.416 8.86933 10.048 9.616 9.312C10.3733 8.56533 10.752 7.57867 10.752 6.352C10.752 5.14667 10.384 4.16533 9.648 3.408C8.912 2.64 7.94133 2.256 6.736 2.256C5.57333 2.256 4.61333 2.63467 3.856 3.392C3.10933 4.13867 2.736 5.12533 2.736 6.352C2.736 7.54667 3.104 8.52267 3.84 9.28C4.576 10.0373 5.54133 10.416 6.736 10.416ZM21.6444 1.36C23.2444 1.36 24.5297 1.80267 25.5004 2.688C26.471 3.57333 26.9564 4.76267 26.9564 6.256C26.9564 7.71733 26.471 8.896 25.5004 9.792C24.5404 10.688 23.2337 11.136 21.5804 11.136H21.4524V12.288H19.5644V11.136H19.4364C17.7937 11.136 16.487 10.6987 15.5164 9.824C14.5457 8.93867 14.0604 7.74933 14.0604 6.256C14.0604 4.77333 14.535 3.58933 15.4844 2.704C16.4337 1.808 17.7297 1.36 19.3724 1.36H19.5644V0.32H21.4524V1.36H21.6444ZM19.3564 9.52H19.5644V2.976H19.3724C18.3697 2.976 17.5697 3.27467 16.9724 3.872C16.375 4.45867 16.0764 5.25333 16.0764 6.256C16.0764 7.216 16.375 8 16.9724 8.608C17.5804 9.216 18.375 9.52 19.3564 9.52ZM21.6604 9.52C22.6524 9.52 23.447 9.216 24.0444 8.608C24.6417 8 24.9404 7.216 24.9404 6.256C24.9404 5.25333 24.6417 4.45867 24.0444 3.872C23.447 3.27467 22.647 2.976 21.6444 2.976H21.4524V9.52H21.6604ZM37.6753 0.591999H38.6833V12H36.7313V4.256L29.7073 12.08H28.6833V0.688H30.6353V8.432L37.6753 0.591999ZM52.1801 10.224V14.656H50.3881V12H40.9801V0.688H42.9321V10.224H48.3721V0.688H50.3241V10.224H52.1801ZM62.4409 0.591999H63.4489V12H61.4969V4.256L54.4729 12.08H53.4489V0.688H55.4009V8.432L62.4409 0.591999ZM74.1458 12L73.0738 9.616H67.9058L66.8338 12H64.7058L69.8578 0.608H71.1058L76.2738 12H74.1458ZM70.4818 3.264L69.5538 5.632L68.5938 7.968H72.3858L71.4098 5.632L70.4818 3.264ZM77.5746 12.032C77.1906 12.032 76.908 12.0213 76.7266 12V10.288C76.8546 10.2987 77.0466 10.304 77.3026 10.304C77.9426 10.304 78.4013 10.016 78.6786 9.44C78.956 8.85333 79.0946 7.93067 79.0946 6.672V0.688H87.5906V12H85.6386V2.448H81.0466V6.928C81.0466 7.94133 80.9666 8.79467 80.8066 9.488C80.6466 10.1707 80.4013 10.6933 80.0706 11.056C79.7506 11.4187 79.3933 11.6747 78.9986 11.824C78.604 11.9627 78.1293 12.032 77.5746 12.032ZM89.902 12V0.688H91.854V4.176H94.558C96.0193 4.176 97.1233 4.50133 97.87 5.152C98.6167 5.80267 98.99 6.76267 98.99 8.032C98.99 10.6773 97.406 12 94.238 12H89.902ZM91.854 10.288H94.158C96.0353 10.288 96.974 9.54667 96.974 8.064C96.974 6.60267 96.1153 5.872 94.398 5.872H91.854V10.288ZM100.433 12V0.688H102.385V5.92H107.985V0.688H109.937V12H107.985V7.68H102.385V12H100.433ZM112.246 12V0.688H114.198V4.176H116.838C118.299 4.176 119.403 4.50133 120.15 5.152C120.907 5.80267 121.286 6.76267 121.286 8.032C121.286 10.6773 119.702 12 116.534 12H112.246ZM122.726 12V0.688H124.742V12H122.726ZM114.198 10.288H116.454C118.32 10.288 119.254 9.54667 119.254 8.064C119.254 6.60267 118.4 5.872 116.694 5.872H114.198V10.288ZM127.043 12V0.688H135.091V2.416H128.963V5.568H134.131V7.232H128.963V10.272H135.379V12H127.043ZM140.652 12V0.688H150.188V12H148.236V2.448H142.604V12H140.652ZM160.896 12L159.824 9.616H154.656L153.584 12H151.456L156.608 0.608H157.856L163.024 12H160.896ZM157.232 3.264L156.304 5.632L155.344 7.968H159.136L158.16 5.632L157.232 3.264ZM168.805 0.688C170.255 0.688 171.354 1.024 172.101 1.696C172.858 2.368 173.237 3.35467 173.237 4.656C173.237 7.376 171.653 8.736 168.485 8.736H166.245V12H164.293V0.688H168.805ZM168.405 7.04C170.271 7.04 171.205 6.26133 171.205 4.704C171.205 3.168 170.351 2.4 168.645 2.4H166.245V7.04H168.405ZM177.722 12V2.48H174.026V0.688H183.418V2.48H179.722V12H177.722ZM184.996 12V0.688H186.948V5.92H192.548V0.688H194.5V12H192.548V7.68H186.948V12H184.996ZM196.808 12V0.688H204.856V2.416H198.728V5.568H203.896V7.232H198.728V10.272H205.144V12H196.808ZM211.398 0.688C212.849 0.688 213.948 1.024 214.694 1.696C215.452 2.368 215.83 3.35467 215.83 4.656C215.83 7.376 214.246 8.736 211.078 8.736H208.838V12H206.886V0.688H211.398ZM210.998 7.04C212.865 7.04 213.798 6.26133 213.798 4.704C213.798 3.168 212.945 2.4 211.238 2.4H208.838V7.04H210.998ZM217.34 12V0.688H219.292V4.176H221.932C223.393 4.176 224.497 4.50133 225.244 5.152C226.001 5.80267 226.38 6.76267 226.38 8.032C226.38 10.6773 224.796 12 221.628 12H217.34ZM227.82 12V0.688H229.836V12H227.82ZM219.292 10.288H221.548C223.414 10.288 224.348 9.54667 224.348 8.064C224.348 6.60267 223.494 5.872 221.788 5.872H219.292V10.288ZM239.396 0.688H244.26V12H242.324V8.624H239.956C239.71 8.624 239.529 8.61867 239.412 8.608L237.188 12H234.9L237.444 8.208C236.004 7.61067 235.284 6.42133 235.284 4.64C235.284 2.00533 236.654 0.688 239.396 0.688ZM240.036 6.944H242.324V2.4H239.78C238.148 2.4 237.332 3.15733 237.332 4.672C237.332 6.18667 238.233 6.944 240.036 6.944ZM246.574 12V0.688H248.526V5.92H254.126V0.688H256.078V12H254.126V7.68H248.526V12H246.574ZM270.114 10.224V14.656H268.306V12H259.442V14.656H257.634V10.224H258.818C259.469 9.648 259.794 8.288 259.794 6.144V0.688H268.242V10.224H270.114ZM260.882 10.224H266.29V2.448H261.73V6.288C261.73 8.18667 261.448 9.49867 260.882 10.224ZM271.746 12V0.688H279.794V2.416H273.666V5.568H278.834V7.232H273.666V10.272H280.082V12H271.746ZM291.712 12H289.056L283.776 6.64V12H281.824V0.688H283.776V6.064L288.608 0.688H291.136L286.032 6.24L291.712 12ZM297.763 12.208C295.992 12.208 294.568 11.6747 293.491 10.608C292.424 9.54133 291.891 8.10667 291.891 6.304C291.891 4.50133 292.424 3.08267 293.491 2.048C294.558 1.00267 295.982 0.48 297.763 0.48C299.854 0.48 301.496 1.2 302.691 2.64L301.155 3.904C300.376 2.816 299.256 2.272 297.795 2.272C296.632 2.272 295.699 2.63467 294.995 3.36C294.291 4.08533 293.939 5.06667 293.939 6.304C293.939 7.552 294.291 8.54933 294.995 9.296C295.71 10.0427 296.643 10.416 297.795 10.416C299.267 10.416 300.387 9.87733 301.155 8.8L302.691 10.064C301.507 11.4933 299.864 12.208 297.763 12.208ZM314.911 5.984C315.669 6.144 316.266 6.45867 316.704 6.928C317.141 7.39733 317.36 7.98933 317.36 8.704C317.36 9.792 317.024 10.6133 316.352 11.168C315.68 11.7227 314.634 12 313.216 12H307.84V0.688H312.8C314.005 0.688 314.922 0.933333 315.552 1.424C316.192 1.904 316.512 2.59733 316.512 3.504C316.512 4.79467 315.978 5.62133 314.911 5.984ZM309.792 2.352V5.472H312.576C313.909 5.472 314.576 4.928 314.576 3.84C314.576 3.34933 314.41 2.98133 314.08 2.736C313.76 2.48 313.312 2.352 312.736 2.352H309.792ZM313.216 10.304C314.634 10.304 315.344 9.75467 315.344 8.656C315.344 7.58933 314.538 7.056 312.928 7.056H309.792V10.304H313.216ZM332.368 12H329.712L324.432 6.64V12H322.48V0.688H324.432V6.064L329.264 0.688H331.792L326.688 6.24L332.368 12ZM342.021 12L340.949 9.616H335.781L334.709 12H332.581L337.733 0.608H338.981L344.149 12H342.021ZM338.357 3.264L337.429 5.632L336.469 7.968H340.261L339.285 5.632L338.357 3.264ZM352.106 6.144C352.852 6.29333 353.466 6.608 353.946 7.088C354.426 7.55733 354.666 8.13867 354.666 8.832C354.666 9.94133 354.244 10.784 353.402 11.36C352.57 11.9253 351.38 12.208 349.834 12.208C348.554 12.208 347.508 12.0373 346.698 11.696C345.887 11.3547 345.231 10.848 344.73 10.176L346.154 8.88C346.772 9.968 348.02 10.512 349.898 10.512C351.722 10.512 352.634 9.91467 352.634 8.72C352.634 8.25067 352.399 7.872 351.93 7.584C351.471 7.296 350.772 7.152 349.834 7.152H347.85V5.6H349.546C350.292 5.6 350.895 5.44 351.354 5.12C351.823 4.78933 352.058 4.35733 352.058 3.824C352.058 3.26933 351.823 2.85867 351.354 2.592C350.895 2.31467 350.271 2.176 349.482 2.176C348.138 2.176 347.135 2.71467 346.474 3.792L345.034 2.528C345.578 1.84533 346.202 1.33333 346.906 0.992C347.61 0.650666 348.495 0.48 349.562 0.48C350.959 0.48 352.047 0.741333 352.826 1.264C353.615 1.78667 354.01 2.52267 354.01 3.472C354.01 4.144 353.834 4.70933 353.482 5.168C353.14 5.616 352.682 5.94133 352.106 6.144ZM364.49 12L363.418 9.616H358.25L357.178 12H355.05L360.202 0.608H361.45L366.618 12H364.49ZM360.826 3.264L359.898 5.632L358.938 7.968H362.73L361.754 5.632L360.826 3.264ZM377.598 12H375.246L372.222 7.632L369.246 12H366.878L370.878 6.256L366.974 0.688H369.326L372.254 4.944L375.182 0.688H377.518L373.63 6.256L377.598 12ZM383.685 12.208C381.914 12.208 380.49 11.6747 379.413 10.608C378.346 9.54133 377.813 8.10667 377.813 6.304C377.813 4.50133 378.346 3.08267 379.413 2.048C380.48 1.00267 381.904 0.48 383.685 0.48C385.776 0.48 387.418 1.2 388.613 2.64L387.077 3.904C386.298 2.816 385.178 2.272 383.717 2.272C382.554 2.272 381.621 2.63467 380.917 3.36C380.213 4.08533 379.861 5.06667 379.861 6.304C379.861 7.552 380.213 8.54933 380.917 9.296C381.632 10.0427 382.565 10.416 383.717 10.416C385.189 10.416 386.309 9.87733 387.077 8.8L388.613 10.064C387.429 11.4933 385.786 12.208 383.685 12.208ZM393.206 12V2.48H389.51V0.688H398.902V2.48H395.206V12H393.206ZM407.193 12L406.121 9.616H400.953L399.881 12H397.753L402.905 0.608H404.153L409.321 12H407.193ZM403.529 3.264L402.601 5.632L401.641 7.968H405.433L404.457 5.632L403.529 3.264ZM410.59 12V0.688H412.542V5.92H418.142V0.688H420.094V12H418.142V7.68H412.542V12H410.59ZM422.402 12V0.688H430.45V2.416H424.322V5.568H429.49V7.232H424.322V10.272H430.738V12H422.402Z" fill="white"/>
<path fill-rule="evenodd" clip-rule="evenodd" d="M452.5 11.456C451.739 11.8053 450.892 12 450 12C446.686 12 444 9.31371 444 6C444 2.68629 446.686 0 450 0C450.892 0 451.739 0.194744 452.5 0.544043C450.434 1.49205 449 3.57851 449 6C449 8.42149 450.434 10.5079 452.5 11.456ZM452.5 11.456C454.566 10.5079 456 8.42149 456 6C456 3.57851 454.566 1.49205 452.5 0.544043C453.261 0.194744 454.108 0 455 0C458.314 0 461 2.68629 461 6C461 9.31371 458.314 12 455 12C454.108 12 453.261 11.8053 452.5 11.456Z" fill="white"/>
<path d="M477.88 0.688H482.744V12H480.808V8.624H478.44C478.195 8.624 478.013 8.61867 477.896 8.608L475.672 12H473.384L475.928 8.208C474.488 7.61067 473.768 6.42133 473.768 4.64C473.768 2.00533 475.139 0.688 477.88 0.688ZM478.52 6.944H480.808V2.4H478.264C476.632 2.4 475.816 3.15733 475.816 4.672C475.816 6.18667 476.717 6.944 478.52 6.944ZM492.13 5.984C492.888 6.144 493.485 6.45867 493.922 6.928C494.36 7.39733 494.578 7.98933 494.578 8.704C494.578 9.792 494.242 10.6133 493.57 11.168C492.898 11.7227 491.853 12 490.434 12H485.058V0.688H490.018C491.224 0.688 492.141 0.933333 492.77 1.424C493.41 1.904 493.73 2.59733 493.73 3.504C493.73 4.79467 493.197 5.62133 492.13 5.984ZM487.01 2.352V5.472H489.794C491.128 5.472 491.794 4.928 491.794 3.84C491.794 3.34933 491.629 2.98133 491.298 2.736C490.978 2.48 490.53 2.352 489.954 2.352H487.01ZM490.434 10.304C491.853 10.304 492.562 9.75467 492.562 8.656C492.562 7.58933 491.757 7.056 490.146 7.056H487.01V10.304H490.434ZM496.2 12.032C495.816 12.032 495.533 12.0213 495.352 12V10.288C495.48 10.2987 495.672 10.304 495.928 10.304C496.568 10.304 497.026 10.016 497.304 9.44C497.581 8.85333 497.72 7.93067 497.72 6.672V0.688H506.216V12H504.264V2.448H499.672V6.928C499.672 7.94133 499.592 8.79467 499.432 9.488C499.272 10.1707 499.026 10.6933 498.696 11.056C498.376 11.4187 498.018 11.6747 497.624 11.824C497.229 11.9627 496.754 12.032 496.2 12.032ZM512.255 0.688H517.119V12H515.183V8.624H512.815C512.57 8.624 512.388 8.61867 512.271 8.608L510.047 12H507.759L510.303 8.208C508.863 7.61067 508.143 6.42133 508.143 4.64C508.143 2.00533 509.514 0.688 512.255 0.688ZM512.895 6.944H515.183V2.4H512.639C511.007 2.4 510.191 3.15733 510.191 4.672C510.191 6.18667 511.092 6.944 512.895 6.944ZM519.433 12V0.688H527.481V2.416H521.353V5.568H526.521V7.232H521.353V10.272H527.769V12H519.433ZM540.199 0.624H541.239V12H539.303V4.944L535.767 10H534.983L531.447 4.992V12H529.511V0.624H530.551L535.399 7.472L540.199 0.624ZM548.951 12.208C547.18 12.208 545.756 11.6747 544.679 10.608C543.612 9.54133 543.079 8.10667 543.079 6.304C543.079 4.50133 543.612 3.08267 544.679 2.048C545.745 1.00267 547.169 0.48 548.951 0.48C551.041 0.48 552.684 1.2 553.879 2.64L552.343 3.904C551.564 2.816 550.444 2.272 548.983 2.272C547.82 2.272 546.887 2.63467 546.183 3.36C545.479 4.08533 545.127 5.06667 545.127 6.304C545.127 7.552 545.479 8.54933 546.183 9.296C546.897 10.0427 547.831 10.416 548.983 10.416C550.455 10.416 551.575 9.87733 552.343 8.8L553.879 10.064C552.695 11.4933 551.052 12.208 548.951 12.208ZM559.224 0.688H564.088V12H562.152V8.624H559.784C559.538 8.624 559.357 8.61867 559.24 8.608L557.016 12H554.728L557.272 8.208C555.832 7.61067 555.112 6.42133 555.112 4.64C555.112 2.00533 556.482 0.688 559.224 0.688ZM559.864 6.944H562.152V2.4H559.608C557.976 2.4 557.16 3.15733 557.16 4.672C557.16 6.18667 558.061 6.944 559.864 6.944ZM578.333 12L577.261 9.616H572.093L571.021 12H568.893L574.045 0.608H575.293L580.461 12H578.333ZM574.669 3.264L573.741 5.632L572.781 7.968H576.573L575.597 5.632L574.669 3.264ZM591.618 12H588.962L583.682 6.64V12H581.73V0.688H583.682V6.064L588.514 0.688H591.042L585.938 6.24L591.618 12ZM602.759 12H600.103L594.823 6.64V12H592.871V0.688H594.823V6.064L599.655 0.688H602.183L597.079 6.24L602.759 12ZM608.523 0.688C609.974 0.688 611.073 1.024 611.819 1.696C612.577 2.368 612.955 3.35467 612.955 4.656C612.955 7.376 611.371 8.736 608.203 8.736H605.963V12H604.011V0.688H608.523ZM608.123 7.04C609.99 7.04 610.923 6.26133 610.923 4.704C610.923 3.168 610.07 2.4 608.363 2.4H605.963V7.04H608.123ZM614.465 12V0.688H622.513V2.416H616.385V5.568H621.553V7.232H616.385V10.272H622.801V12H614.465ZM636.271 10.224V14.656H634.463V12H625.599V14.656H623.791V10.224H624.975C625.625 9.648 625.951 8.288 625.951 6.144V0.688H634.399V10.224H636.271ZM627.039 10.224H632.447V2.448H627.887V6.288C627.887 8.18667 627.604 9.49867 627.039 10.224ZM646.894 0.591999H647.902V12H645.95V4.256L638.926 12.08H637.902V0.688H639.854V8.432L646.894 0.591999ZM653.175 12V2.48H649.479V0.688H658.871V2.48H655.175V12H653.175ZM665.236 12.208C663.465 12.208 662.015 11.6747 660.884 10.608C659.753 9.53067 659.188 8.112 659.188 6.352C659.188 4.624 659.743 3.21067 660.852 2.112C661.961 1.01333 663.423 0.464 665.236 0.464C667.007 0.464 668.457 1.00267 669.588 2.08C670.729 3.15733 671.3 4.58133 671.3 6.352C671.3 8.06933 670.74 9.47733 669.62 10.576C668.511 11.664 667.049 12.208 665.236 12.208ZM665.236 10.416C666.409 10.416 667.369 10.048 668.116 9.312C668.873 8.56533 669.252 7.57867 669.252 6.352C669.252 5.14667 668.884 4.16533 668.148 3.408C667.412 2.64 666.441 2.256 665.236 2.256C664.073 2.256 663.113 2.63467 662.356 3.392C661.609 4.13867 661.236 5.12533 661.236 6.352C661.236 7.54667 661.604 8.52267 662.34 9.28C663.076 10.0373 664.041 10.416 665.236 10.416ZM680.208 5.984C680.966 6.144 681.563 6.45867 682 6.928C682.438 7.39733 682.656 7.98933 682.656 8.704C682.656 9.792 682.32 10.6133 681.648 11.168C680.976 11.7227 679.931 12 678.512 12H673.136V0.688H678.096C679.302 0.688 680.219 0.933333 680.848 1.424C681.488 1.904 681.808 2.59733 681.808 3.504C681.808 4.79467 681.275 5.62133 680.208 5.984ZM675.088 2.352V5.472H677.872C679.206 5.472 679.872 4.928 679.872 3.84C679.872 3.34933 679.707 2.98133 679.376 2.736C679.056 2.48 678.608 2.352 678.032 2.352H675.088ZM678.512 10.304C679.931 10.304 680.64 9.75467 680.64 8.656C680.64 7.58933 679.835 7.056 678.224 7.056H675.088V10.304H678.512ZM692.49 12L691.418 9.616H686.25L685.178 12H683.05L688.202 0.608H689.45L694.618 12H692.49ZM688.826 3.264L687.898 5.632L686.938 7.968H690.73L689.754 5.632L688.826 3.264ZM695.886 12V0.688H697.838V5.92H703.438V0.688H705.39V12H703.438V7.68H697.838V12H695.886ZM707.699 12V0.688H709.651V5.92H715.251V0.688H717.203V12H715.251V7.68H709.651V12H707.699ZM719.511 12V0.688H721.463V4.176H724.103C725.565 4.176 726.669 4.50133 727.415 5.152C728.173 5.80267 728.551 6.76267 728.551 8.032C728.551 10.6773 726.967 12 723.799 12H719.511ZM729.991 12V0.688H732.007V12H729.991ZM721.463 10.288H723.719C725.586 10.288 726.519 9.54667 726.519 8.064C726.519 6.60267 725.666 5.872 723.959 5.872H721.463V10.288ZM744.996 0.624H746.036V12H744.1V4.944L740.564 10H739.78L736.244 4.992V12H734.308V0.624H735.348L740.196 7.472L744.996 0.624ZM757.332 0.591999H758.34V12H756.388V4.256L749.364 12.08H748.34V0.688H750.292V8.432L757.332 0.591999ZM774.056 12H771.4L766.12 6.64V12H764.168V0.688H766.12V6.064L770.952 0.688H773.48L768.376 6.24L774.056 12ZM780.283 12.208C778.512 12.208 777.062 11.6747 775.931 10.608C774.8 9.53067 774.235 8.112 774.235 6.352C774.235 4.624 774.79 3.21067 775.899 2.112C777.008 1.01333 778.47 0.464 780.283 0.464C782.054 0.464 783.504 1.00267 784.635 2.08C785.776 3.15733 786.347 4.58133 786.347 6.352C786.347 8.06933 785.787 9.47733 784.667 10.576C783.558 11.664 782.096 12.208 780.283 12.208ZM780.283 10.416C781.456 10.416 782.416 10.048 783.163 9.312C783.92 8.56533 784.299 7.57867 784.299 6.352C784.299 5.14667 783.931 4.16533 783.195 3.408C782.459 2.64 781.488 2.256 780.283 2.256C779.12 2.256 778.16 2.63467 777.403 3.392C776.656 4.13867 776.283 5.12533 776.283 6.352C776.283 7.54667 776.651 8.52267 777.387 9.28C778.123 10.0373 779.088 10.416 780.283 10.416ZM788.183 12V0.688H790.135V5.92H795.735V0.688H797.687V12H795.735V7.68H790.135V12H788.183ZM805.404 12.208C803.633 12.208 802.209 11.6747 801.132 10.608C800.065 9.54133 799.532 8.10667 799.532 6.304C799.532 4.50133 800.065 3.08267 801.132 2.048C802.198 1.00267 803.622 0.48 805.404 0.48C807.494 0.48 809.137 1.2 810.332 2.64L808.796 3.904C808.017 2.816 806.897 2.272 805.436 2.272C804.273 2.272 803.34 2.63467 802.636 3.36C801.932 4.08533 801.58 5.06667 801.58 6.304C801.58 7.552 801.932 8.54933 802.636 9.296C803.35 10.0427 804.284 10.416 805.436 10.416C806.908 10.416 808.028 9.87733 808.796 8.8L810.332 10.064C809.148 11.4933 807.505 12.208 805.404 12.208ZM819.293 0.688H821.517L817.261 9.216C816.909 9.94133 816.584 10.5013 816.285 10.896C815.986 11.2907 815.608 11.6107 815.149 11.856C814.69 12.0907 814.136 12.208 813.485 12.208C813.101 12.208 812.728 12.176 812.365 12.112V10.4C812.632 10.4533 812.898 10.48 813.165 10.48C813.634 10.48 814.024 10.3947 814.333 10.224C814.642 10.0427 814.946 9.68 815.245 9.136L810.797 0.688H813.069L815.453 5.504L816.221 7.152L816.957 5.488L819.293 0.688ZM821.434 12.032C821.05 12.032 820.767 12.0213 820.586 12V10.288C820.714 10.2987 820.906 10.304 821.162 10.304C821.802 10.304 822.261 10.016 822.538 9.44C822.815 8.85333 822.954 7.93067 822.954 6.672V0.688H831.45V12H829.498V2.448H824.906V6.928C824.906 7.94133 824.826 8.79467 824.666 9.488C824.506 10.1707 824.261 10.6933 823.93 11.056C823.61 11.4187 823.253 11.6747 822.858 11.824C822.463 11.9627 821.989 12.032 821.434 12.032ZM833.761 12V0.688H835.713V4.176H838.417C839.879 4.176 840.983 4.50133 841.729 5.152C842.476 5.80267 842.849 6.76267 842.849 8.032C842.849 10.6773 841.265 12 838.097 12H833.761ZM835.713 10.288H838.017C839.895 10.288 840.833 9.54667 840.833 8.064C840.833 6.60267 839.975 5.872 838.257 5.872H835.713V10.288ZM846.034 12V2.48H842.338V0.688H851.73V2.48H848.034V12H846.034ZM860.021 12L858.949 9.616H853.781L852.709 12H850.581L855.733 0.608H856.981L862.149 12H860.021ZM856.357 3.264L855.429 5.632L854.469 7.968H858.261L857.285 5.632L856.357 3.264ZM863.418 12V0.688H865.37V5.92H870.97V0.688H872.922V12H870.97V7.68H865.37V12H863.418ZM878.206 12V2.48H874.51V0.688H883.902V2.48H880.206V12H878.206ZM892.193 12L891.121 9.616H885.953L884.881 12H882.753L887.905 0.608H889.153L894.321 12H892.193ZM888.529 3.264L887.601 5.632L886.641 7.968H890.433L889.457 5.632L888.529 3.264ZM906.278 0.624H907.318V12H905.382V4.944L901.846 10H901.062L897.526 4.992V12H895.59V0.624H896.63L901.478 7.472L906.278 0.624ZM918.613 0.591999H919.621V12H917.669V4.256L910.645 12.08H909.621V0.688H911.573V8.432L918.613 0.591999ZM925.449 12V0.688H933.497V2.416H927.369V5.568H932.537V7.232H927.369V10.272H933.785V12H925.449ZM940.663 4.976C943.447 4.976 944.839 6.11733 944.839 8.4C944.839 9.616 944.471 10.5227 943.735 11.12C942.999 11.7067 941.874 12 940.359 12H935.527V0.688H943.815V2.4H937.479V4.976H940.663ZM940.279 10.288C941.175 10.288 941.82 10.1333 942.215 9.824C942.62 9.51467 942.823 9.056 942.823 8.448C942.823 7.84 942.636 7.392 942.263 7.104C941.9 6.80533 941.314 6.656 940.503 6.656H937.479V10.288H940.279ZM950.82 0.688C952.271 0.688 953.37 1.024 954.116 1.696C954.874 2.368 955.252 3.35467 955.252 4.656C955.252 7.376 953.668 8.736 950.5 8.736H948.26V12H946.308V0.688H950.82ZM950.42 7.04C952.287 7.04 953.22 6.26133 953.22 4.704C953.22 3.168 952.367 2.4 950.66 2.4H948.26V7.04H950.42ZM961.273 0.688C962.724 0.688 963.823 1.024 964.569 1.696C965.327 2.368 965.705 3.35467 965.705 4.656C965.705 7.376 964.121 8.736 960.953 8.736H958.713V12H956.761V0.688H961.273ZM960.873 7.04C962.74 7.04 963.673 6.26133 963.673 4.704C963.673 3.168 962.82 2.4 961.113 2.4H958.713V7.04H960.873Z" fill="white"/>
<path fill-rule="evenodd" clip-rule="evenodd" d="M987.5 11.456C986.739 11.8053 985.892 12 985 12C981.686 12 979 9.31371 979 6C979 2.68629 981.686 0 985 0C985.892 0 986.739 0.194744 987.5 0.544043C985.434 1.49205 984 3.57851 984 6C984 8.42149 985.434 10.5079 987.5 11.456ZM987.5 11.456C989.566 10.5079 991 8.42149 991 6C991 3.57851 989.566 1.49205 987.5 0.544043C988.261 0.194744 989.108 0 990 0C993.314 0 996 2.68629 996 6C996 9.31371 993.314 12 990 12C989.108 12 988.261 11.8053 987.5 11.456Z" fill="white"/>
<path d="M1012.88 0.688H1017.74V12H1015.81V8.624H1013.44C1013.19 8.624 1013.01 8.61867 1012.9 8.608L1010.67 12H1008.38L1010.93 8.208C1009.49 7.61067 1008.77 6.42133 1008.77 4.64C1008.77 2.00533 1010.14 0.688 1012.88 0.688ZM1013.52 6.944H1015.81V2.4H1013.26C1011.63 2.4 1010.82 3.15733 1010.82 4.672C1010.82 6.18667 1011.72 6.944 1013.52 6.944ZM1027.13 5.984C1027.89 6.144 1028.48 6.45867 1028.92 6.928C1029.36 7.39733 1029.58 7.98933 1029.58 8.704C1029.58 9.792 1029.24 10.6133 1028.57 11.168C1027.9 11.7227 1026.85 12 1025.43 12H1020.06V0.688H1025.02C1026.22 0.688 1027.14 0.933333 1027.77 1.424C1028.41 1.904 1028.73 2.59733 1028.73 3.504C1028.73 4.79467 1028.2 5.62133 1027.13 5.984ZM1022.01 2.352V5.472H1024.79C1026.13 5.472 1026.79 4.928 1026.79 3.84C1026.79 3.34933 1026.63 2.98133 1026.3 2.736C1025.98 2.48 1025.53 2.352 1024.95 2.352H1022.01ZM1025.43 10.304C1026.85 10.304 1027.56 9.75467 1027.56 8.656C1027.56 7.58933 1026.76 7.056 1025.15 7.056H1022.01V10.304H1025.43ZM1031.2 12.032C1030.82 12.032 1030.53 12.0213 1030.35 12V10.288C1030.48 10.2987 1030.67 10.304 1030.93 10.304C1031.57 10.304 1032.03 10.016 1032.3 9.44C1032.58 8.85333 1032.72 7.93067 1032.72 6.672V0.688H1041.22V12H1039.26V2.448H1034.67V6.928C1034.67 7.94133 1034.59 8.79467 1034.43 9.488C1034.27 10.1707 1034.03 10.6933 1033.7 11.056C1033.38 11.4187 1033.02 11.6747 1032.62 11.824C1032.23 11.9627 1031.75 12.032 1031.2 12.032ZM1047.26 0.688H1052.12V12H1050.18V8.624H1047.82C1047.57 8.624 1047.39 8.61867 1047.27 8.608L1045.05 12H1042.76L1045.3 8.208C1043.86 7.61067 1043.14 6.42133 1043.14 4.64C1043.14 2.00533 1044.51 0.688 1047.26 0.688ZM1047.9 6.944H1050.18V2.4H1047.64C1046.01 2.4 1045.19 3.15733 1045.19 4.672C1045.19 6.18667 1046.09 6.944 1047.9 6.944ZM1054.43 12V0.688H1062.48V2.416H1056.35V5.568H1061.52V7.232H1056.35V10.272H1062.77V12H1054.43ZM1075.2 0.624H1076.24V12H1074.3V4.944L1070.77 10H1069.98L1066.45 4.992V12H1064.51V0.624H1065.55L1070.4 7.472L1075.2 0.624ZM1083.95 12.208C1082.18 12.208 1080.76 11.6747 1079.68 10.608C1078.61 9.54133 1078.08 8.10667 1078.08 6.304C1078.08 4.50133 1078.61 3.08267 1079.68 2.048C1080.75 1.00267 1082.17 0.48 1083.95 0.48C1086.04 0.48 1087.68 1.2 1088.88 2.64L1087.34 3.904C1086.56 2.816 1085.44 2.272 1083.98 2.272C1082.82 2.272 1081.89 2.63467 1081.18 3.36C1080.48 4.08533 1080.13 5.06667 1080.13 6.304C1080.13 7.552 1080.48 8.54933 1081.18 9.296C1081.9 10.0427 1082.83 10.416 1083.98 10.416C1085.45 10.416 1086.57 9.87733 1087.34 8.8L1088.88 10.064C1087.69 11.4933 1086.05 12.208 1083.95 12.208ZM1094.22 0.688H1099.09V12H1097.15V8.624H1094.78C1094.54 8.624 1094.36 8.61867 1094.24 8.608L1092.02 12H1089.73L1092.27 8.208C1090.83 7.61067 1090.11 6.42133 1090.11 4.64C1090.11 2.00533 1091.48 0.688 1094.22 0.688ZM1094.86 6.944H1097.15V2.4H1094.61C1092.98 2.4 1092.16 3.15733 1092.16 4.672C1092.16 6.18667 1093.06 6.944 1094.86 6.944ZM1109.45 0.688C1110.9 0.688 1111.99 1.024 1112.74 1.696C1113.5 2.368 1113.88 3.35467 1113.88 4.656C1113.88 7.376 1112.29 8.736 1109.13 8.736H1106.89V12H1104.93V0.688H1109.45ZM1109.05 7.04C1110.91 7.04 1111.85 6.26133 1111.85 4.704C1111.85 3.168 1110.99 2.4 1109.29 2.4H1106.89V7.04H1109.05ZM1115.39 12V0.688H1123.43V2.416H1117.31V5.568H1122.47V7.232H1117.31V10.272H1123.72V12H1115.39ZM1132.15 6.144C1132.9 6.29333 1133.51 6.608 1133.99 7.088C1134.47 7.55733 1134.71 8.13867 1134.71 8.832C1134.71 9.94133 1134.29 10.784 1133.45 11.36C1132.62 11.9253 1131.43 12.208 1129.88 12.208C1128.6 12.208 1127.56 12.0373 1126.74 11.696C1125.93 11.3547 1125.28 10.848 1124.78 10.176L1126.2 8.88C1126.82 9.968 1128.07 10.512 1129.94 10.512C1131.77 10.512 1132.68 9.91467 1132.68 8.72C1132.68 8.25067 1132.45 7.872 1131.98 7.584C1131.52 7.296 1130.82 7.152 1129.88 7.152H1127.9V5.6H1129.59C1130.34 5.6 1130.94 5.44 1131.4 5.12C1131.87 4.78933 1132.1 4.35733 1132.1 3.824C1132.1 3.26933 1131.87 2.85867 1131.4 2.592C1130.94 2.31467 1130.32 2.176 1129.53 2.176C1128.18 2.176 1127.18 2.71467 1126.52 3.792L1125.08 2.528C1125.62 1.84533 1126.25 1.33333 1126.95 0.992C1127.66 0.650666 1128.54 0.48 1129.61 0.48C1131.01 0.48 1132.09 0.741333 1132.87 1.264C1133.66 1.78667 1134.06 2.52267 1134.06 3.472C1134.06 4.144 1133.88 4.70933 1133.53 5.168C1133.19 5.616 1132.73 5.94133 1132.15 6.144ZM1145.28 0.591999H1146.29V12H1144.34V4.256L1137.32 12.08H1136.29V0.688H1138.24V8.432L1145.28 0.591999ZM1160.32 10.224V14.656H1158.51V12H1149.65V14.656H1147.84V10.224H1149.02C1149.67 9.648 1150 8.288 1150 6.144V0.688H1158.45V10.224H1160.32ZM1151.09 10.224H1156.49V2.448H1151.93V6.288C1151.93 8.18667 1151.65 9.49867 1151.09 10.224ZM1161.95 12V0.688H1170V2.416H1163.87V5.568H1169.04V7.232H1163.87V10.272H1170.28V12H1161.95ZM1172.03 12V0.688H1173.98V5.92H1179.58V0.688H1181.53V12H1179.58V7.68H1173.98V12H1172.03ZM1186.82 12V2.48H1183.12V0.688H1192.51V2.48H1188.82V12H1186.82ZM1200.8 12L1199.73 9.616H1194.56L1193.49 12H1191.36L1196.51 0.608H1197.76L1202.93 12H1200.8ZM1197.14 3.264L1196.21 5.632L1195.25 7.968H1199.04L1198.07 5.632L1197.14 3.264ZM1214.89 0.624H1215.93V12H1213.99V4.944L1210.45 10H1209.67L1206.13 4.992V12H1204.2V0.624H1205.24L1210.09 7.472L1214.89 0.624ZM1227.22 0.591999H1228.23V12H1226.28V4.256L1219.25 12.08H1218.23V0.688H1220.18V8.432L1227.22 0.591999ZM1242.46 12L1241.39 9.616H1236.22L1235.15 12H1233.02L1238.17 0.608H1239.42L1244.59 12H1242.46ZM1238.79 3.264L1237.87 5.632L1236.91 7.968H1240.7L1239.72 5.632L1238.79 3.264ZM1250.06 12.208C1249.1 12.208 1248.27 12.1333 1247.57 11.984C1246.87 11.824 1246.11 11.5573 1245.28 11.184L1246.02 9.488C1247.42 10.16 1248.74 10.496 1249.97 10.496C1250.67 10.496 1251.22 10.3573 1251.6 10.08C1251.99 9.80267 1252.19 9.408 1252.19 8.896C1252.19 8.416 1251.99 8.064 1251.58 7.84C1251.18 7.616 1250.5 7.40267 1249.55 7.2C1248.16 6.92267 1247.13 6.53867 1246.45 6.048C1245.76 5.55733 1245.42 4.80533 1245.42 3.792C1245.42 2.78933 1245.78 1.98933 1246.5 1.392C1247.21 0.783999 1248.24 0.48 1249.58 0.48C1251.18 0.48 1252.59 0.773333 1253.79 1.36L1252.98 2.976C1251.88 2.47467 1250.75 2.224 1249.58 2.224C1248.9 2.224 1248.37 2.368 1248 2.656C1247.64 2.944 1247.46 3.296 1247.46 3.712C1247.46 4.18133 1247.67 4.53333 1248.11 4.768C1248.56 4.992 1249.3 5.216 1250.34 5.44C1250.96 5.57867 1251.49 5.72267 1251.9 5.872C1252.33 6.01067 1252.73 6.208 1253.1 6.464C1253.49 6.70933 1253.77 7.024 1253.95 7.408C1254.14 7.78133 1254.24 8.23467 1254.24 8.768C1254.24 9.90933 1253.88 10.768 1253.17 11.344C1252.45 11.92 1251.42 12.208 1250.06 12.208ZM1258.69 12V2.48H1254.99V0.688H1264.39V2.48H1260.69V12H1258.69ZM1272.68 12L1271.61 9.616H1266.44L1265.37 12H1263.24L1268.39 0.608H1269.64L1274.81 12H1272.68ZM1269.01 3.264L1268.09 5.632L1267.12 7.968H1270.92L1269.94 5.632L1269.01 3.264ZM1284.14 0.688H1286.07V12.08H1285.08L1278.01 4.272V12H1276.07V0.591999H1277.07L1284.14 8.4V0.688ZM1296.77 12L1295.7 9.616H1290.53L1289.46 12H1287.33L1292.48 0.608H1293.73L1298.9 12H1296.77ZM1293.11 3.264L1292.18 5.632L1291.22 7.968H1295.01L1294.03 5.632L1293.11 3.264ZM1303.7 12V0.688H1305.65V5.92H1311.25V0.688H1313.2V12H1311.25V7.68H1305.65V12H1303.7ZM1325 7.536C1325 10.6507 1323.39 12.208 1320.18 12.208C1316.97 12.208 1315.37 10.6507 1315.37 7.536V0.688H1317.35V7.088C1317.35 8.24 1317.58 9.07733 1318.02 9.6C1318.47 10.1227 1319.19 10.384 1320.18 10.384C1321.18 10.384 1321.9 10.1227 1322.34 9.6C1322.8 9.07733 1323.03 8.24 1323.03 7.088V0.688H1325V7.536ZM1334.22 5.984C1334.98 6.144 1335.58 6.45867 1336.02 6.928C1336.45 7.39733 1336.67 7.98933 1336.67 8.704C1336.67 9.792 1336.34 10.6133 1335.66 11.168C1334.99 11.7227 1333.95 12 1332.53 12H1327.15V0.688H1332.11C1333.32 0.688 1334.23 0.933333 1334.86 1.424C1335.5 1.904 1335.82 2.59733 1335.82 3.504C1335.82 4.79467 1335.29 5.62133 1334.22 5.984ZM1329.1 2.352V5.472H1331.89C1333.22 5.472 1333.89 4.928 1333.89 3.84C1333.89 3.34933 1333.72 2.98133 1333.39 2.736C1333.07 2.48 1332.62 2.352 1332.05 2.352H1329.1ZM1332.53 10.304C1333.95 10.304 1334.66 9.75467 1334.66 8.656C1334.66 7.58933 1333.85 7.056 1332.24 7.056H1329.1V10.304H1332.53Z" fill="white"/>
<path fill-rule="evenodd" clip-rule="evenodd" d="M1358.5 11.456C1357.74 11.8053 1356.89 12 1356 12C1352.69 12 1350 9.31371 1350 6C1350 2.68629 1352.69 0 1356 0C1356.89 0 1357.74 0.194744 1358.5 0.544043C1356.43 1.49205 1355 3.57851 1355 6C1355 8.42149 1356.43 10.5079 1358.5 11.456ZM1358.5 11.456C1360.57 10.5079 1362 8.42149 1362 6C1362 3.57851 1360.57 1.49205 1358.5 0.544043C1359.26 0.194744 1360.11 0 1361 0C1364.31 0 1367 2.68629 1367 6C1367 9.31371 1364.31 12 1361 12C1360.11 12 1359.26 11.8053 1358.5 11.456Z" fill="white"/>
<path d="M1383.88 0.688H1388.74V12H1386.81V8.624H1384.44C1384.19 8.624 1384.01 8.61867 1383.9 8.608L1381.67 12H1379.38L1381.93 8.208C1380.49 7.61067 1379.77 6.42133 1379.77 4.64C1379.77 2.00533 1381.14 0.688 1383.88 0.688ZM1384.52 6.944H1386.81V2.4H1384.26C1382.63 2.4 1381.82 3.15733 1381.82 4.672C1381.82 6.18667 1382.72 6.944 1384.52 6.944ZM1398.13 5.984C1398.89 6.144 1399.48 6.45867 1399.92 6.928C1400.36 7.39733 1400.58 7.98933 1400.58 8.704C1400.58 9.792 1400.24 10.6133 1399.57 11.168C1398.9 11.7227 1397.85 12 1396.43 12H1391.06V0.688H1396.02C1397.22 0.688 1398.14 0.933333 1398.77 1.424C1399.41 1.904 1399.73 2.59733 1399.73 3.504C1399.73 4.79467 1399.2 5.62133 1398.13 5.984ZM1393.01 2.352V5.472H1395.79C1397.13 5.472 1397.79 4.928 1397.79 3.84C1397.79 3.34933 1397.63 2.98133 1397.3 2.736C1396.98 2.48 1396.53 2.352 1395.95 2.352H1393.01ZM1396.43 10.304C1397.85 10.304 1398.56 9.75467 1398.56 8.656C1398.56 7.58933 1397.76 7.056 1396.15 7.056H1393.01V10.304H1396.43ZM1402.2 12.032C1401.82 12.032 1401.53 12.0213 1401.35 12V10.288C1401.48 10.2987 1401.67 10.304 1401.93 10.304C1402.57 10.304 1403.03 10.016 1403.3 9.44C1403.58 8.85333 1403.72 7.93067 1403.72 6.672V0.688H1412.22V12H1410.26V2.448H1405.67V6.928C1405.67 7.94133 1405.59 8.79467 1405.43 9.488C1405.27 10.1707 1405.03 10.6933 1404.7 11.056C1404.38 11.4187 1404.02 11.6747 1403.62 11.824C1403.23 11.9627 1402.75 12.032 1402.2 12.032ZM1418.26 0.688H1423.12V12H1421.18V8.624H1418.82C1418.57 8.624 1418.39 8.61867 1418.27 8.608L1416.05 12H1413.76L1416.3 8.208C1414.86 7.61067 1414.14 6.42133 1414.14 4.64C1414.14 2.00533 1415.51 0.688 1418.26 0.688ZM1418.9 6.944H1421.18V2.4H1418.64C1417.01 2.4 1416.19 3.15733 1416.19 4.672C1416.19 6.18667 1417.09 6.944 1418.9 6.944ZM1425.43 12V0.688H1433.48V2.416H1427.35V5.568H1432.52V7.232H1427.35V10.272H1433.77V12H1425.43ZM1446.2 0.624H1447.24V12H1445.3V4.944L1441.77 10H1440.98L1437.45 4.992V12H1435.51V0.624H1436.55L1441.4 7.472L1446.2 0.624ZM1454.95 12.208C1453.18 12.208 1451.76 11.6747 1450.68 10.608C1449.61 9.54133 1449.08 8.10667 1449.08 6.304C1449.08 4.50133 1449.61 3.08267 1450.68 2.048C1451.75 1.00267 1453.17 0.48 1454.95 0.48C1457.04 0.48 1458.68 1.2 1459.88 2.64L1458.34 3.904C1457.56 2.816 1456.44 2.272 1454.98 2.272C1453.82 2.272 1452.89 2.63467 1452.18 3.36C1451.48 4.08533 1451.13 5.06667 1451.13 6.304C1451.13 7.552 1451.48 8.54933 1452.18 9.296C1452.9 10.0427 1453.83 10.416 1454.98 10.416C1456.45 10.416 1457.57 9.87733 1458.34 8.8L1459.88 10.064C1458.69 11.4933 1457.05 12.208 1454.95 12.208ZM1465.22 0.688H1470.09V12H1468.15V8.624H1465.78C1465.54 8.624 1465.36 8.61867 1465.24 8.608L1463.02 12H1460.73L1463.27 8.208C1461.83 7.61067 1461.11 6.42133 1461.11 4.64C1461.11 2.00533 1462.48 0.688 1465.22 0.688ZM1465.86 6.944H1468.15V2.4H1465.61C1463.98 2.4 1463.16 3.15733 1463.16 4.672C1463.16 6.18667 1464.06 6.944 1465.86 6.944ZM1480.45 0.688C1481.9 0.688 1482.99 1.024 1483.74 1.696C1484.5 2.368 1484.88 3.35467 1484.88 4.656C1484.88 7.376 1483.29 8.736 1480.13 8.736H1477.89V12H1475.93V0.688H1480.45ZM1480.05 7.04C1481.91 7.04 1482.85 6.26133 1482.85 4.704C1482.85 3.168 1481.99 2.4 1480.29 2.4H1477.89V7.04H1480.05ZM1486.39 12V0.688H1494.43V2.416H1488.31V5.568H1493.47V7.232H1488.31V10.272H1494.72V12H1486.39ZM1503.15 6.144C1503.9 6.29333 1504.51 6.608 1504.99 7.088C1505.47 7.55733 1505.71 8.13867 1505.71 8.832C1505.71 9.94133 1505.29 10.784 1504.45 11.36C1503.62 11.9253 1502.43 12.208 1500.88 12.208C1499.6 12.208 1498.56 12.0373 1497.74 11.696C1496.93 11.3547 1496.28 10.848 1495.78 10.176L1497.2 8.88C1497.82 9.968 1499.07 10.512 1500.94 10.512C1502.77 10.512 1503.68 9.91467 1503.68 8.72C1503.68 8.25067 1503.45 7.872 1502.98 7.584C1502.52 7.296 1501.82 7.152 1500.88 7.152H1498.9V5.6H1500.59C1501.34 5.6 1501.94 5.44 1502.4 5.12C1502.87 4.78933 1503.1 4.35733 1503.1 3.824C1503.1 3.26933 1502.87 2.85867 1502.4 2.592C1501.94 2.31467 1501.32 2.176 1500.53 2.176C1499.18 2.176 1498.18 2.71467 1497.52 3.792L1496.08 2.528C1496.62 1.84533 1497.25 1.33333 1497.95 0.992C1498.66 0.650666 1499.54 0.48 1500.61 0.48C1502.01 0.48 1503.09 0.741333 1503.87 1.264C1504.66 1.78667 1505.06 2.52267 1505.06 3.472C1505.06 4.144 1504.88 4.70933 1504.53 5.168C1504.19 5.616 1503.73 5.94133 1503.15 6.144ZM1516.28 0.591999H1517.29V12H1515.34V4.256L1508.32 12.08H1507.29V0.688H1509.24V8.432L1516.28 0.591999ZM1531.32 10.224V14.656H1529.51V12H1520.65V14.656H1518.84V10.224H1520.02C1520.67 9.648 1521 8.288 1521 6.144V0.688H1529.45V10.224H1531.32ZM1522.09 10.224H1527.49V2.448H1522.93V6.288C1522.93 8.18667 1522.65 9.49867 1522.09 10.224ZM1532.95 12V0.688H1541V2.416H1534.87V5.568H1540.04V7.232H1534.87V10.272H1541.28V12H1532.95ZM1543.03 12V0.688H1544.98V5.92H1550.58V0.688H1552.53V12H1550.58V7.68H1544.98V12H1543.03ZM1557.82 12V2.48H1554.12V0.688H1563.51V2.48H1559.82V12H1557.82ZM1571.8 12L1570.73 9.616H1565.56L1564.49 12H1562.36L1567.51 0.608H1568.76L1573.93 12H1571.8ZM1568.14 3.264L1567.21 5.632L1566.25 7.968H1570.04L1569.07 5.632L1568.14 3.264ZM1585.89 0.624H1586.93V12H1584.99V4.944L1581.45 10H1580.67L1577.13 4.992V12H1575.2V0.624H1576.24L1581.09 7.472L1585.89 0.624ZM1598.22 0.591999H1599.23V12H1597.28V4.256L1590.25 12.08H1589.23V0.688H1591.18V8.432L1598.22 0.591999ZM1613.46 12L1612.39 9.616H1607.22L1606.15 12H1604.02L1609.17 0.608H1610.42L1615.59 12H1613.46ZM1609.79 3.264L1608.87 5.632L1607.91 7.968H1611.7L1610.72 5.632L1609.79 3.264ZM1621.06 12.208C1620.1 12.208 1619.27 12.1333 1618.57 11.984C1617.87 11.824 1617.11 11.5573 1616.28 11.184L1617.02 9.488C1618.42 10.16 1619.74 10.496 1620.97 10.496C1621.67 10.496 1622.22 10.3573 1622.6 10.08C1622.99 9.80267 1623.19 9.408 1623.19 8.896C1623.19 8.416 1622.99 8.064 1622.58 7.84C1622.18 7.616 1621.5 7.40267 1620.55 7.2C1619.16 6.92267 1618.13 6.53867 1617.45 6.048C1616.76 5.55733 1616.42 4.80533 1616.42 3.792C1616.42 2.78933 1616.78 1.98933 1617.5 1.392C1618.21 0.783999 1619.24 0.48 1620.58 0.48C1622.18 0.48 1623.59 0.773333 1624.79 1.36L1623.98 2.976C1622.88 2.47467 1621.75 2.224 1620.58 2.224C1619.9 2.224 1619.37 2.368 1619 2.656C1618.64 2.944 1618.46 3.296 1618.46 3.712C1618.46 4.18133 1618.67 4.53333 1619.11 4.768C1619.56 4.992 1620.3 5.216 1621.34 5.44C1621.96 5.57867 1622.49 5.72267 1622.9 5.872C1623.33 6.01067 1623.73 6.208 1624.1 6.464C1624.49 6.70933 1624.77 7.024 1624.95 7.408C1625.14 7.78133 1625.24 8.23467 1625.24 8.768C1625.24 9.90933 1624.88 10.768 1624.17 11.344C1623.45 11.92 1622.42 12.208 1621.06 12.208ZM1629.69 12V2.48H1625.99V0.688H1635.39V2.48H1631.69V12H1629.69ZM1643.68 12L1642.61 9.616H1637.44L1636.37 12H1634.24L1639.39 0.608H1640.64L1645.81 12H1643.68ZM1640.01 3.264L1639.09 5.632L1638.12 7.968H1641.92L1640.94 5.632L1640.01 3.264ZM1655.14 0.688H1657.07V12.08H1656.08L1649.01 4.272V12H1647.07V0.591999H1648.07L1655.14 8.4V0.688ZM1667.77 12L1666.7 9.616H1661.53L1660.46 12H1658.33L1663.48 0.608H1664.73L1669.9 12H1667.77ZM1664.11 3.264L1663.18 5.632L1662.22 7.968H1666.01L1665.03 5.632L1664.11 3.264ZM1674.7 12V0.688H1676.65V5.92H1682.25V0.688H1684.2V12H1682.25V7.68H1676.65V12H1674.7ZM1696 7.536C1696 10.6507 1694.39 12.208 1691.18 12.208C1687.97 12.208 1686.37 10.6507 1686.37 7.536V0.688H1688.35V7.088C1688.35 8.24 1688.58 9.07733 1689.02 9.6C1689.47 10.1227 1690.19 10.384 1691.18 10.384C1692.18 10.384 1692.9 10.1227 1693.34 9.6C1693.8 9.07733 1694.03 8.24 1694.03 7.088V0.688H1696V7.536ZM1705.22 5.984C1705.98 6.144 1706.58 6.45867 1707.02 6.928C1707.45 7.39733 1707.67 7.98933 1707.67 8.704C1707.67 9.792 1707.34 10.6133 1706.66 11.168C1705.99 11.7227 1704.95 12 1703.53 12H1698.15V0.688H1703.11C1704.32 0.688 1705.23 0.933333 1705.86 1.424C1706.5 1.904 1706.82 2.59733 1706.82 3.504C1706.82 4.79467 1706.29 5.62133 1705.22 5.984ZM1700.1 2.352V5.472H1702.89C1704.22 5.472 1704.89 4.928 1704.89 3.84C1704.89 3.34933 1704.72 2.98133 1704.39 2.736C1704.07 2.48 1703.62 2.352 1703.05 2.352H1700.1ZM1703.53 10.304C1704.95 10.304 1705.66 9.75467 1705.66 8.656C1705.66 7.58933 1704.85 7.056 1703.24 7.056H1700.1V10.304H1703.53Z" fill="white"/>
</svg>
